<?xml version="1.0" ?><!DOCTYPE svg  PUBLIC '-//W3C//DTD SVG 1.1//EN'  'http://www.w3.org/Graphics/SVG/1.1/DTD/svg11.dtd' [
	<!ENTITY stroke_color "#010101">
	<!ENTITY fill_color "#ffffff">
]>
<svg  version="1.1" id="Capa_1" xmlns="http://www.w3.org/2000/svg" xmlns:xlink="http://www.w3.org/1999/xlink" x="0px" y="0px"
	 viewBox="0 0 25.024 32" style="enable-background:new 0 0 25.024 32;" xml:space="preserve">
<g id="_x32__17_">
	<g>
		<path style="fill-rule:evenodd;clip-rule:evenodd;" d="M4.057,19.145C4.045,19.095,4.021,19.05,4.01,19h-2
			c0.11,0.596,0.271,1.175,0.478,1.733L4.057,19.145z M13.01,0c-3.866,0-7,3.134-7,7L6.007,17.309L19.499,4.402
			C18.466,1.825,15.956,0,13.01,0z M23.587,3.012L0,25.596l1.428,1.409L25.024,4.432L23.587,3.012z M13.01,26
			c-1.939,0-3.764-0.637-5.284-1.681L6.32,25.742c1.634,1.211,3.583,2.023,5.69,2.213V30h-1c-0.552,0-1,0.448-1,1
			c0,0.552,0.448,1,1,1h4c0.552,0,1-0.448,1-1c0-0.552-0.448-1-1-1h-1v-2.045c4.937-0.445,9.117-4.156,10-8.955h-2
			C21.1,23.006,17.292,26,13.01,26z M20.01,17v-5.261L8.745,22.515C9.929,23.432,11.396,24,13.01,24
			C16.876,24,20.01,20.866,20.01,17z" fill="&fill_color;" stroke="&stroke_color;"/>
	</g>
</g>
<g>
</g>
<g>
</g>
<g>
</g>
<g>
</g>
<g>
</g>
<g>
</g>
<g>
</g>
<g>
</g>
<g>
</g>
<g>
</g>
<g>
</g>
<g>
</g>
<g>
</g>
<g>
</g>
<g>
</g>
</svg>
